<svg xmlns="http://www.w3.org/2000/svg" viewBox="0 0 44.5 44.5"><defs><style>.cls-1,.cls-2{stroke:#000;stroke-miterlimit:10;}.cls-2{fill:none;}</style></defs><g id="Layer_2" data-name="Layer 2"><g id="Layer_2-2" data-name="Layer 2"><ellipse cx="22.25" cy="14.16" rx="14.28" ry="2.51"/><path d="M22.25,12.15c8.13,0,12.74,1.26,13.68,2-.94.76-5.55,2-13.68,2s-12.74-1.25-13.68-2c.94-.75,5.55-2,13.68-2m0-1c-8.16,0-14.78,1.35-14.78,3s6.62,3,14.78,3S37,15.82,37,14.16s-6.62-3-14.78-3Z"/><path class="cls-1" d="M37,16.12c0,1.66-6.62,3-14.78,3s-14.78-1.34-14.78-3V20.3c0,1.66,6.62,3,14.78,3S37,22,37,20.3Z"/><path class="cls-1" d="M37,22.13c0,1.66-6.62,3-14.78,3s-14.78-1.35-14.78-3v4.19c0,1.66,6.62,3,14.78,3S37,28,37,26.32Z"/><path class="cls-1" d="M37,28.15c0,1.66-6.62,3-14.78,3s-14.78-1.35-14.78-3v4.19c0,1.66,6.62,3,14.78,3S37,34,37,32.34Z"/><circle class="cls-2" cx="22.25" cy="22.25" r="21.75"/></g></g></svg>