<svg xmlns="http://www.w3.org/2000/svg" viewBox="0 0 44.5 44.5"><defs><style>.cls-1{fill:none;stroke:#000;stroke-miterlimit:10;}</style></defs><g id="Layer_2" data-name="Layer 2"><g id="Layer_2-2" data-name="Layer 2"><circle class="cls-1" cx="22.25" cy="22.25" r="21.75"/><path class="cls-1" d="M35.56,12.74l.49.6A1.39,1.39,0,0,1,35.9,15l-9,11.81c-.42.56-1.07.68-1.41.26l-1.19-1.45a1.42,1.42,0,0,1,.21-1.72l9.72-11C34.65,12.43,35.24,12.35,35.56,12.74Z"/><path d="M21.27,28.36c.51-2,2.77-2.26,3.33-1.58s0,2.5-1.29,4.06-4.87,1.33-5.43.64c-.27-.33,2.22-.71,2.67-1.26S21,29.45,21.27,28.36Z"/><line class="cls-1" x1="8.25" y1="31.97" x2="33.4" y2="31.97"/></g></g></svg>